# File created by Blade
# Date/Time:  Tue Sep 30 19:36:22 2014
#---------------------------------------------------------
:version 1.10
:name HOM
:units
  mass 1.0
  length 1.000000
  angle deg
:documentation
     Acclaim Skeleton File
:root
   axis xyz
   order TX TY TZ RX RY RZ
   position 0.000000 0.000000 0.000000
   orientation 0 0 0
:bonedata
   begin
      id 1
      name Spine_dum
      direction 0.000000 1.000000 0.000000
      length 3.241213
      axis 0.0 0.0 0.0 xyz
   end
   begin
      id 2
      name LeftUpLeg_dum
      direction 1.000000 0.000000 0.000000
      length 3.434019
      axis 0.0 0.0 0.0 xyz
   end
   begin
      id 3
      name RightUpLeg_dum
      direction -1.000000 0.000000 0.000000
      length 3.434019
      axis 0.0 0.0 0.0 xyz
   end
   begin
      id 4
      name Spine
      direction 0.000000 1.000000 0.000000
      length 0.000000
      axis 0.0 0.0 0.0 xyz
      dof rx ry rz
   end
   begin
      id 5
      name Spine_dum1
      direction 0.000000 1.000000 0.000000
      length 18.382958
      axis 0.0 0.0 0.0 xyz
   end
   begin
      id 6
      name Spine_dum2
      direction 0.000000 1.000000 0.000000
      length 12.828261
      axis 0.0 0.0 0.0 xyz
   end
   begin
      id 7
      name Spine_dum3
      direction 0.000000 1.000000 0.000000
      length 12.828261
      axis 0.0 0.0 0.0 xyz
   end
   begin
      id 8
      name Head
      direction 0.000000 1.000000 0.000000
      length 4.527550
      axis 0.0 0.0 0.0 xyz
      dof rx ry rz
   end
   begin
      id 9
      name LeftShoulder
      direction 1.000000 0.000000 0.000000
      length 7.748055
      axis 0.0 0.0 -90.0 xyz
      dof rx ry rz
   end
   begin
      id 10
      name LeftArm
      direction 1.000000 0.000000 0.000000
      length 10.635614
      axis 0.0 0.0 -90.0 xyz
      dof rx ry rz
   end
   begin
      id 11
      name LeftForeArm
      direction 1.000000 0.000000 0.000000
      length 8.346755
      axis 0.0 0.0 -90.0 xyz
      dof ry rz rx
   end
   begin
      id 12
      name LeftHand
      direction 0.000000 0.000000 0.000000
      length 0.000000
      axis 0.0 0.0 -90.0 xyz
      dof rx ry rz
   end
   begin
      id 13
      name LeftHand_dum1
      direction 0.000000 0.000000 0.000000
      length 0.000000
      axis 0.0 0.0 -90.0 xyz
   end
   begin
      id 14
      name LeftHand_dum2
      direction 1.000000 0.000000 0.000000
      length 3.937000
      axis 0.0 0.0 -90.0 xyz
   end
   begin
      id 15
      name LeftHandThumb1
      direction 0.000000 0.000000 1.000000
      length 3.937000
      axis 0.0 0.0 -90.0 xyz
      dof rx rz ry
   end
   begin
      id 16
      name RightShoulder
      direction -1.000000 0.000000 0.000000
      length 7.748055
      axis 0.0 0.0 90.0 xyz
      dof rx ry rz
   end
   begin
      id 17
      name RightArm
      direction -1.000000 0.000000 0.000000
      length 10.635614
      axis 0.0 0.0 90.0 xyz
      dof rx ry rz
   end
   begin
      id 18
      name RightForeArm
      direction -1.000000 0.000000 0.000000
      length 8.346755
      axis 0.0 0.0 90.0 xyz
      dof ry rz rx
   end
   begin
      id 19
      name RightHand
      direction 0.000000 0.000000 0.000000
      length 0.000000
      axis 0.0 0.0 90.0 xyz
      dof rx ry rz
   end
   begin
      id 20
      name RightHand_dum1
      direction 0.000000 0.000000 0.000000
      length 0.000000
      axis 0.0 0.0 90.0 xyz
   end
   begin
      id 21
      name RightHand_dum2
      direction -1.000000 0.000000 0.000000
      length 3.937000
      axis 0.0 0.0 90.0 xyz
   end
   begin
      id 22
      name RightHandThumb1
      direction 0.000000 0.000000 1.000000
      length 3.937000
      axis 0.0 0.0 90.0 xyz
      dof rx rz ry
   end
   begin
      id 23
      name LeftUpLeg
      direction 0.000000 -1.000000 0.000000
      length 15.713025
      axis 0.0 0.0 0.0 xyz
      dof rx ry rz
   end
   begin
      id 24
      name LeftLeg
      direction 0.000000 -1.000000 0.000000
      length 14.435119
      axis 0.0 0.0 0.0 xyz
      dof rx ry rz
   end
   begin
      id 25
      name LeftFoot
      direction 0.000000 -0.258819 0.965926
      length 4.938895
      axis 15.0 0.0 0.0 xyz
      dof rx ry rz
   end
   begin
      id 26
      name LeftToeBase
      direction 0.000000 0.000000 1.000000
      length 2.952750
      axis 0.0 0.0 0.0 xyz
      dof rx ry rz
   end
   begin
      id 27
      name RightUpLeg
      direction 0.000000 -1.000000 0.000000
      length 15.713025
      axis 0.0 0.0 0.0 xyz
      dof rx ry rz
   end
   begin
      id 28
      name RightLeg
      direction 0.000000 -1.000000 0.000000
      length 14.435119
      axis 0.0 0.0 0.0 xyz
      dof rx ry rz
   end
   begin
      id 29
      name RightFoot
      direction 0.000000 -0.258819 0.965926
      length 4.938895
      axis 15.0 0.0 0.0 xyz
      dof rx ry rz
   end
   begin
      id 30
      name RightToeBase
      direction 0.000000 0.000000 1.000000
      length 2.952750
      axis 0.0 0.0 0.0 xyz
      dof rx ry rz
   end
:hierarchy
   begin
      root Spine_dum LeftUpLeg_dum RightUpLeg_dum
      Spine_dum Spine
      LeftUpLeg_dum LeftUpLeg
      RightUpLeg_dum RightUpLeg
      Spine Spine_dum1 Spine_dum2 Spine_dum3
      Spine_dum1 Head
      Spine_dum2 LeftShoulder
      Spine_dum3 RightShoulder
      LeftShoulder LeftArm
      LeftArm LeftForeArm
      LeftForeArm LeftHand
      LeftHand LeftHand_dum1 LeftHand_dum2
      LeftHand_dum1 LeftHandThumb1
      RightShoulder RightArm
      RightArm RightForeArm
      RightForeArm RightHand
      RightHand RightHand_dum1 RightHand_dum2
      RightHand_dum1 RightHandThumb1
      LeftUpLeg LeftLeg
      LeftLeg LeftFoot
      LeftFoot LeftToeBase
      RightUpLeg RightLeg
      RightLeg RightFoot
      RightFoot RightToeBase
   end

# File created by Blade
# Date/Time:  Tue Sep 23 19:18:47 2014
# Frame Rate: 120.000 fps
#------------------------------------------------------
:FULLY-SPECIFIED
:DEGREES
631
root -2.474234 34.724471 0.659433 97.536632 22.389071 -43.039697
Spine -68.631835 0.058735 34.170709
Head -13.412218 12.174660 46.721199
LeftShoulder -15.968119 31.715150 37.749310
LeftArm 83.955434 -56.200058 -84.615611
LeftForeArm 5.306852 -0.000000 106.306396
LeftHand -64.046788 -0.000000 11.156853
LeftHandThumb1 -26.253704 0.000000 33.147579
RightShoulder -37.155553 -40.603305 -1.284035
RightArm 32.764671 52.355818 69.984654
RightForeArm 87.472837 -0.000000 -3.373434
RightHand 2.858278 -0.000000 24.681360
RightHandThumb1 -24.326973 -0.000000 -32.862282
LeftUpLeg -123.713531 33.800388 -19.738753
LeftLeg -0.414835 -0.000000 0.000000
LeftFoot -0.607016 1.921567 2.543958
LeftToeBase 3.825341 -0.000000 -0.000000
RightUpLeg 5.976129 -0.425456 -32.645773
RightLeg 61.035345 -0.000000 -0.000000
RightFoot 36.169370 4.794654 2.327727
RightToeBase 35.109553 -0.000000 -0.000000
632
root -2.484197 34.699101 0.664405 98.213140 22.713885 -42.699277
Spine -69.145650 0.079167 34.131350
Head -13.872735 12.048223 46.700458
LeftShoulder -16.111948 31.666150 37.728160
LeftArm 85.324792 -56.077255 -85.235183
LeftForeArm 5.132493 -0.000000 106.114397
LeftHand -64.156652 -0.000000 11.099027
LeftHandThumb1 -26.253704 0.000000 33.147579
RightShoulder -37.021834 -40.517858 -1.648787
RightArm 32.731513 52.578070 70.045851
RightForeArm 86.655355 0.000000 -3.261369
RightHand 3.037171 0.000000 24.356247
RightHandThumb1 -24.326973 -0.000000 -32.862282
LeftUpLeg -124.144165 33.329645 -19.614669
LeftLeg -0.604169 -0.000000 0.000000
LeftFoot -0.178089 1.995810 3.446151
LeftToeBase 3.067620 -0.000000 -0.000000
RightUpLeg 5.967963 -0.272845 -32.468432
RightLeg 60.754084 -0.000000 -0.000000
RightFoot 36.372872 4.817539 2.545185
RightToeBase 35.108789 -0.000000 -0.000000
633
root -2.493351 34.674650 0.668627 98.891121 23.052761 -42.353913
Spine -69.648955 0.110622 34.064367
Head -14.337099 11.897402 46.708641
LeftShoulder -16.213619 31.554010 37.731362
LeftArm 86.619317 -55.934236 -85.759972
LeftForeArm 4.914829 -0.000000 105.895626
LeftHand -64.193021 -0.000000 11.235494
LeftHandThumb1 -26.253704 0.000000 33.147579
RightShoulder -36.763237 -40.212002 -2.197406
RightArm 32.205510 52.738908 69.714018
RightForeArm 85.585619 -0.000000 -3.177278
RightHand 3.047476 -0.000000 24.243327
RightHandThumb1 -24.326973 -0.000000 -32.862282
LeftUpLeg -124.513016 32.887999 -19.406508
LeftLeg -0.818559 -0.000000 0.000000
LeftFoot -0.159462 2.194416 4.709848
LeftToeBase 3.666817 -0.000000 -0.000000
RightUpLeg 5.953033 -0.034226 -32.233827
RightLeg 60.482516 -0.000000 -0.000000
RightFoot 36.577711 4.783158 2.814274
RightToeBase 35.188272 -0.000000 -0.000000
634
root -2.499283 34.646301 0.677159 99.598741 23.300269 -41.905452
Spine -70.203226 0.021952 33.934678
Head -14.808551 11.798943 46.761161
LeftShoulder -16.401712 31.410210 37.769992
LeftArm 87.866865 -55.615615 -86.238015
LeftForeArm 4.821432 0.000000 105.654706
LeftHand -64.334506 -0.000000 11.223054
LeftHandThumb1 -26.253704 0.000000 33.147579
RightShoulder -36.715852 -40.281347 -2.298221
RightArm 32.283755 52.785261 69.597568
RightForeArm 84.948424 0.000000 -3.290191
RightHand 3.365569 0.000000 24.127785
RightHandThumb1 -24.326973 -0.000000 -32.862282
LeftUpLeg -124.823938 32.307659 -19.314675
LeftLeg -1.084028 -0.000000 0.000000
LeftFoot -0.067558 2.235602 5.727364
LeftToeBase 3.949365 -0.000000 -0.000000
RightUpLeg 6.015801 0.164895 -32.064841
RightLeg 60.190764 -0.000000 -0.000000
RightFoot 36.858298 4.873807 3.064560
RightToeBase 35.289251 -0.000000 -0.000000
635
root -2.509751 34.617501 0.685677 100.274653 23.576224 -41.483661
Spine -70.736247 -0.074752 33.836741
Head -15.237917 11.542409 46.881058
LeftShoulder -16.520707 31.267021 37.871784
LeftArm 89.020726 -55.360140 -86.653063
LeftForeArm 4.709187 -0.000000 105.398126
LeftHand -64.448688 -0.000000 11.184522
LeftHandThumb1 -26.253704 0.000000 33.147579
RightShoulder -36.470710 -40.191325 -2.653240
RightArm 31.950529 52.799519 69.263619
RightForeArm 84.186356 0.000000 -3.277171
RightHand 3.587126 -0.000000 23.753354
RightHandThumb1 -24.326973 -0.000000 -32.862282
LeftUpLeg -125.102883 31.805101 -19.161955
LeftLeg -1.404550 -0.000000 0.000000
LeftFoot 0.270118 2.284480 6.296058
LeftToeBase 3.544551 -0.000000 -0.000000
RightUpLeg 6.084071 0.462588 -31.833014
RightLeg 59.924208 -0.000000 -0.000000
RightFoot 37.098762 5.044173 3.385113
RightToeBase 35.480392 -0.000000 -0.000000
636
root -2.509660 34.589860 0.698375 101.149728 23.717179 -40.998682
Spine -71.465132 -0.122874 33.577897
Head -15.711979 11.346929 46.911640
LeftShoulder -16.628444 31.120252 38.016663
LeftArm 90.197074 -54.971311 -87.143268
LeftForeArm 4.646312 -0.000000 105.122733
LeftHand -64.531517 -0.000000 11.093270
LeftHandThumb1 -26.253704 0.000000 33.147579
RightShoulder -36.170490 -39.963213 -3.185382
RightArm 30.807812 52.226501 68.264123
RightForeArm 83.976611 0.000000 -2.993062
RightHand 3.633766 -0.000000 23.237647
RightHandThumb1 -24.326973 -0.000000 -32.862282
LeftUpLeg -125.434729 31.170116 -19.175338
LeftLeg -1.840653 -0.000000 0.000000
LeftFoot 0.541225 2.361648 6.745298
LeftToeBase 3.464540 -0.000000 -0.000000
RightUpLeg 6.012096 0.622075 -31.731651
RightLeg 59.702392 -0.000000 -0.000000
RightFoot 37.450613 5.210142 3.834512
RightToeBase 35.586524 -0.000000 -0.000000
637
root -2.511323 34.559812 0.707008 101.936369 23.912475 -40.533202
Spine -72.079079 -0.198991 33.379495
Head -16.194927 11.228819 46.989764
LeftShoulder -16.801932 30.973542 38.133433
LeftArm 91.443390 -54.543425 -87.692408
LeftForeArm 4.251439 -0.000000 104.825726
LeftHand -64.521563 -0.000000 11.205628
LeftHandThumb1 -26.253704 0.000000 33.147579
RightShoulder -35.884977 -39.741854 -3.626300
RightArm 30.264705 52.214973 67.828286
RightForeArm 83.306175 -0.000000 -2.912738
RightHand 3.951550 -0.000000 22.871557
RightHandThumb1 -24.326973 -0.000000 -32.862282
LeftUpLeg -125.619359 30.684237 -18.923294
LeftLeg -2.260460 -0.000000 0.000000
LeftFoot 0.810541 2.628296 7.304543
LeftToeBase 3.431427 -0.000000 -0.000000
RightUpLeg 5.995353 0.828711 -31.588378
RightLeg 59.484527 -0.000000 -0.000000
RightFoot 37.816955 5.351623 4.231896
RightToeBase 35.736103 -0.000000 -0.000000
638
root -2.515282 34.523979 0.718713 102.649641 24.092640 -40.014031
Spine -72.646114 -0.350061 33.141059
Head -16.704415 11.021397 47.056050
LeftShoulder -16.970206 30.882066 38.269811
LeftArm 92.796046 -53.979413 -88.406803
LeftForeArm 4.125503 0.000000 104.515234
LeftHand -64.544483 -0.000000 11.061659
LeftHandThumb1 -26.253704 0.000000 33.147579
RightShoulder -35.671941 -39.594046 -3.977509
RightArm 29.928906 52.414050 67.619940
RightForeArm 82.488694 0.000000 -2.872439
RightHand 4.222072 -0.000000 22.635156
RightHandThumb1 -24.326973 -0.000000 -32.862282
LeftUpLeg -125.650117 30.230944 -18.541010
LeftLeg -2.661553 -0.000000 0.000000
LeftFoot 1.107981 2.938422 8.091678
LeftToeBase 2.931170 -0.000000 -0.000000
RightUpLeg 6.110403 1.016312 -31.449497
RightLeg 59.255892 -0.000000 -0.000000
RightFoot 38.175450 5.413855 4.553492
RightToeBase 35.724362 -0.000000 -0.000000
639
root -2.510434 34.490066 0.731157 103.529511 24.229291 -39.476162
Spine -73.319749 -0.416036 32.883661
Head -17.340233 10.931607 47.002974
LeftShoulder -17.170678 30.806824 38.343491
LeftArm 94.199201 -53.489131 -89.153507
LeftForeArm 3.887414 -0.000000 104.172196
LeftHand -64.671087 -0.000000 10.876893
LeftHandThumb1 -26.253704 0.000000 33.147579
RightShoulder -35.531978 -39.471245 -4.297370
RightArm 29.792156 52.704335 67.642004
RightForeArm 81.621781 -0.000000 -2.779151
RightHand 4.611733 0.000000 22.215048
RightHandThumb1 -24.326973 -0.000000 -32.862282
LeftUpLeg -125.833166 29.674275 -18.296212
LeftLeg -3.103851 -0.000000 0.000000
LeftFoot 1.441825 3.199367 8.816711
LeftToeBase 2.684898 -0.000000 -0.000000
RightUpLeg 6.069908 1.094680 -31.368222
RightLeg 59.069205 -0.000000 -0.000000
RightFoot 38.432306 5.281618 5.071352
RightToeBase 35.957775 -0.000000 -0.000000
640
root -2.508019 34.456919 0.740913 104.322917 24.392343 -38.935794
Spine -73.896663 -0.540188 32.651873
Head -18.002324 10.824420 46.989379
LeftShoulder -17.363925 30.716763 38.467740
LeftArm 95.478613 -52.961112 -89.850477
LeftForeArm 3.790212 -0.000000 103.848087
LeftHand -64.627538 -0.000000 10.921015
LeftHandThumb1 -26.253704 0.000000 33.147579
RightShoulder -35.304859 -39.269706 -4.647588
RightArm 29.388537 52.977066 67.453302
RightForeArm 80.827217 0.000000 -2.634582
RightHand 4.841948 -0.000000 21.890278
RightHandThumb1 -24.326973 -0.000000 -32.862282
LeftUpLeg -125.937574 29.207030 -17.902167
LeftLeg -3.456534 -0.000000 0.000000
LeftFoot 1.711114 3.516074 9.626719
LeftToeBase 2.711550 -0.000000 -0.000000
RightUpLeg 6.101695 1.157058 -31.288546
RightLeg 58.902449 -0.000000 -0.000000
RightFoot 38.672467 5.357039 5.267599
RightToeBase 36.001577 -0.000000 -0.000000
641
root -2.501207 34.425141 0.749626 105.208012 24.562028 -38.385441
Spine -74.517041 -0.600343 32.451521
Head -18.714009 10.751631 46.876402
LeftShoulder -17.572035 30.610658 38.523774
LeftArm 96.772133 -52.482026 -90.546813
LeftForeArm 3.878633 -0.000000 103.510021
LeftHand -64.661633 -0.000000 10.889210
LeftHandThumb1 -26.253704 0.000000 33.147579
RightShoulder -35.167826 -39.172181 -4.954492
RightArm 29.243727 53.317179 67.566357
RightForeArm 79.862517 -0.000000 -2.390402
RightHand 5.110831 0.000000 21.447975
RightHandThumb1 -24.326973 -0.000000 -32.862282
LeftUpLeg -126.177242 28.694169 -17.563163
LeftLeg -3.773138 -0.000000 0.000000
LeftFoot 2.052506 3.785403 10.441326
LeftToeBase 2.345945 -0.000000 -0.000000
RightUpLeg 6.033086 1.135705 -31.217860
RightLeg 58.764737 -0.000000 -0.000000
RightFoot 38.918113 5.393451 5.521331
RightToeBase 36.057634 -0.000000 -0.000000
